<?xml version="1.0" encoding="utf-8"?>
<!-- Generator: Adobe Illustrator 16.0.0, SVG Export Plug-In . SVG Version: 6.00 Build 0)  -->
<!DOCTYPE svg PUBLIC "-//W3C//DTD SVG 1.1//EN" "http://www.w3.org/Graphics/SVG/1.1/DTD/svg11.dtd">
<svg version="1.1" id="Layer_1" xmlns="http://www.w3.org/2000/svg" xmlns:xlink="http://www.w3.org/1999/xlink" x="0px" y="0px"
	 width="200px" height="80px" viewBox="0 0 200 80" enable-background="new 0 0 200 80" xml:space="preserve">
<path fill="#2C3E50" d="M9.113,26.007h1.485V14.126c0-0.906,0.321-1.68,0.964-2.323s1.427-0.964,2.354-0.964
	c0.906,0,1.68,0.321,2.323,0.964c0.642,0.643,0.963,1.417,0.963,2.323v11.881h3.95c0.906,0,1.675,0.322,2.307,0.964
	c0.632,0.643,0.948,1.417,0.948,2.323c0,0.927-0.316,1.712-0.948,2.354c-0.632,0.642-1.401,0.964-2.307,0.964h-3.95v15.895
	c0,4.191,2.106,6.288,6.32,6.288c0.905,0,1.675,0.321,2.307,0.963c0.632,0.644,0.948,1.418,0.948,2.323
	c0,0.928-0.316,1.713-0.948,2.354c-0.632,0.643-1.401,0.964-2.307,0.964c-8.616,0-12.925-4.298-12.925-12.893V32.612H9.113
	c-0.885,0-1.648-0.322-2.291-0.964c-0.643-0.643-0.964-1.427-0.964-2.354c0-0.905,0.321-1.68,0.964-2.323
	C7.465,26.329,8.229,26.007,9.113,26.007z"/>
<path fill="#2C3E50" d="M37.774,29.294v0.632c1.58-1.264,3.297-2.232,5.151-2.907c1.854-0.674,3.834-1.011,5.941-1.011
	c0.927,0,1.922,0.063,2.986,0.19c1.063,0.126,2.043,0.353,2.938,0.68c0.895,0.326,1.638,0.774,2.228,1.342
	c0.589,0.569,0.885,1.307,0.885,2.212c0,0.464-0.09,0.896-0.269,1.296c-0.18,0.4-0.416,0.753-0.71,1.059
	c-0.295,0.306-0.643,0.543-1.043,0.711c-0.4,0.169-0.833,0.253-1.296,0.253c-0.4,0-0.864-0.116-1.39-0.348
	c-1.327-0.526-2.771-0.79-4.329-0.79c-1.538,0-2.981,0.29-4.329,0.869c-1.349,0.58-2.523,1.37-3.523,2.37
	c-1,1.001-1.791,2.176-2.37,3.523c-0.58,1.349-0.869,2.792-0.869,4.329v14.41c0,0.905-0.321,1.681-0.964,2.322
	c-0.643,0.643-1.417,0.964-2.322,0.964c-0.927,0-1.712-0.321-2.354-0.964c-0.643-0.642-0.964-1.417-0.964-2.322V29.294
	c0-0.905,0.321-1.68,0.964-2.323c0.642-0.642,1.427-0.964,2.354-0.964c0.906,0,1.68,0.322,2.322,0.964
	C37.453,27.614,37.774,28.389,37.774,29.294z"/>
<path fill="#2C3E50" d="M63.401,58.081V29.326c0-0.927,0.322-1.711,0.964-2.354c0.643-0.642,1.417-0.964,2.323-0.964
	s1.68,0.322,2.323,0.964c0.642,0.643,0.974,1.427,0.996,2.354v28.755c-0.022,0.928-0.354,1.713-0.996,2.354
	c-0.643,0.643-1.417,0.964-2.323,0.964s-1.68-0.321-2.323-0.964C63.723,59.794,63.401,59.009,63.401,58.081z"/>
<path fill="#2C3E50" d="M94.496,61.399c-4.234,0-7.932-1.295-11.091-3.887v15.769c0,0.947-0.322,1.732-0.964,2.354
	c-0.643,0.621-1.428,0.933-2.354,0.933c-0.948,0-1.733-0.312-2.354-0.933S76.8,74.229,76.8,73.281V43.703
	c0-4.887,1.728-9.058,5.183-12.513c3.455-3.455,7.625-5.183,12.514-5.183c4.845,0,9.017,1.728,12.514,5.183
	c1.728,1.707,3.022,3.608,3.887,5.704c0.863,2.096,1.296,4.366,1.296,6.81c0,4.931-1.729,9.101-5.183,12.514
	c-1.771,1.749-3.692,3.05-5.768,3.903C99.167,60.973,96.918,61.399,94.496,61.399z M83.405,43.703c0,1.518,0.289,2.95,0.869,4.298
	c0.579,1.348,1.364,2.523,2.354,3.523c0.99,1.001,2.159,1.797,3.507,2.386c1.349,0.59,2.802,0.885,4.361,0.885
	c1.537,0,2.98-0.295,4.329-0.885c1.348-0.589,2.522-1.391,3.523-2.401c1-1.011,1.79-2.186,2.369-3.523
	c0.58-1.338,0.87-2.765,0.87-4.282c0-1.517-0.29-2.943-0.87-4.282c-0.579-1.337-1.369-2.512-2.369-3.523
	c-1.001-1.011-2.176-1.812-3.523-2.401c-1.349-0.59-2.792-0.884-4.329-0.884c-1.56,0-3.013,0.294-4.361,0.884
	s-2.518,1.385-3.507,2.386c-0.99,1.001-1.775,2.175-2.354,3.523C83.694,40.754,83.405,42.187,83.405,43.703z"/>
<path fill="#2C3E50" d="M134.943,61.399c-4.234,0-7.932-1.295-11.092-3.887v15.769c0,0.947-0.321,1.732-0.963,2.354
	c-0.644,0.621-1.429,0.933-2.355,0.933c-0.947,0-1.732-0.312-2.354-0.933c-0.622-0.621-0.932-1.406-0.932-2.354V43.703
	c0-4.887,1.728-9.058,5.182-12.513s7.626-5.183,12.514-5.183c4.846,0,9.017,1.728,12.514,5.183c1.727,1.707,3.022,3.608,3.887,5.704
	c0.863,2.096,1.296,4.366,1.296,6.81c0,4.931-1.729,9.101-5.183,12.514c-1.77,1.749-3.691,3.05-5.768,3.903
	C139.614,60.973,137.366,61.399,134.943,61.399z M123.852,43.703c0,1.518,0.289,2.95,0.869,4.298
	c0.579,1.348,1.363,2.523,2.354,3.523c0.989,1.001,2.159,1.797,3.508,2.386c1.348,0.59,2.802,0.885,4.36,0.885
	c1.538,0,2.98-0.295,4.329-0.885c1.349-0.589,2.522-1.391,3.523-2.401s1.79-2.186,2.37-3.523c0.579-1.338,0.868-2.765,0.868-4.282
	c0-1.517-0.289-2.943-0.868-4.282c-0.58-1.337-1.369-2.512-2.37-3.523c-1.001-1.011-2.175-1.812-3.523-2.401
	s-2.791-0.884-4.329-0.884c-1.559,0-3.013,0.294-4.36,0.884c-1.349,0.59-2.519,1.385-3.508,2.386
	c-0.991,1.001-1.775,2.175-2.354,3.523C124.141,40.754,123.852,42.187,123.852,43.703z"/>
<path fill="#2C3E50" d="M164.173,29.294v0.632c1.58-1.264,3.297-2.232,5.151-2.907c1.854-0.674,3.833-1.011,5.94-1.011
	c0.926,0,1.922,0.063,2.986,0.19c1.063,0.126,2.043,0.353,2.938,0.68c0.895,0.326,1.638,0.774,2.229,1.342
	c0.589,0.569,0.884,1.307,0.884,2.212c0,0.464-0.089,0.896-0.268,1.296c-0.181,0.4-0.417,0.753-0.711,1.059
	c-0.296,0.306-0.644,0.543-1.044,0.711c-0.4,0.169-0.832,0.253-1.296,0.253c-0.4,0-0.863-0.116-1.39-0.348
	c-1.327-0.526-2.771-0.79-4.329-0.79c-1.538,0-2.98,0.29-4.329,0.869c-1.349,0.58-2.522,1.37-3.523,2.37
	c-1.001,1.001-1.791,2.176-2.37,3.523c-0.579,1.349-0.869,2.792-0.869,4.329v14.41c0,0.905-0.321,1.681-0.964,2.322
	c-0.643,0.643-1.417,0.964-2.322,0.964c-0.927,0-1.712-0.321-2.354-0.964c-0.644-0.642-0.965-1.417-0.965-2.322V29.294
	c0-0.905,0.321-1.68,0.965-2.323c0.642-0.642,1.427-0.964,2.354-0.964c0.905,0,1.68,0.322,2.322,0.964
	C163.852,27.614,164.173,28.389,164.173,29.294z"/>
<path fill="#EF4755" d="M70.575,19.719c0,1.075-0.379,1.991-1.138,2.749s-1.675,1.138-2.75,1.138c-1.074,0-1.991-0.379-2.749-1.138
	s-1.138-1.674-1.138-2.749c0-1.074,0.379-1.991,1.138-2.749c0.758-0.759,1.675-1.138,2.749-1.138c1.075,0,1.991,0.379,2.75,1.138
	C70.196,17.729,70.575,18.645,70.575,19.719z"/>
<path fill="#EF4755" d="M193.535,19.719c0,1.075-0.379,1.991-1.138,2.749c-0.758,0.758-1.674,1.138-2.749,1.138
	c-1.074,0-1.99-0.379-2.748-1.138c-0.759-0.758-1.139-1.674-1.139-2.749c0-1.074,0.38-1.991,1.139-2.749
	c0.758-0.759,1.674-1.138,2.748-1.138c1.075,0,1.991,0.379,2.749,1.138C193.156,17.729,193.535,18.645,193.535,19.719z"/>
<g>
	<g>
		<path fill="#EF4755" d="M73.779,13.25c36.254-7.326,73.704-8.535,109.858,0c3.137,0.74,4.467-4.081,1.33-4.821
			c-37.039-8.744-75.377-7.505-112.517,0C69.291,9.067,70.631,13.887,73.779,13.25L73.779,13.25z"/>
	</g>
</g>
</svg>
